PathFileType	4	(X/Y/Z)	C:/Users/DISI/Documents/SIV_Franzin_Parola/Rigid-Body Object Trackig/Logs/Alza_001.trc
DataRate	CameraRate	NumFrames	NumMarkers	Units	OrigDataRate	OrigDataStartFrame	OrigNumFrames
360	360	22	25	m	360	1314	10514
Frame#	Time	Marker1			Marker2			Marker3			Marker4			Marker5			Marker6			Unlabeled 1323			Unlabeled 1324			Unlabeled 1325			Unlabeled 1326			Unlabeled 1328			Unlabeled 1329			Unlabeled 1330			Unlabeled 1331			Unlabeled 1332			Unlabeled 1333			Unlabeled 1334			Unlabeled 1335			Unlabeled 1336			Unlabeled 1337			Unlabeled 1338			Unlabeled 1340			Unlabeled 1341			Unlabeled 1342			Unlabeled 1344			
		X1	Y1	Z1	X2	Y2	Z2	X3	Y3	Z3	X4	Y4	Z4	X5	Y5	Z5	X6	Y6	Z6	X7	Y7	Z7	X8	Y8	Z8	X9	Y9	Z9	X10	Y10	Z10	X11	Y11	Z11	X12	Y12	Z12	X13	Y13	Z13	X14	Y14	Z14	X15	Y15	Z15	X16	Y16	Z16	X17	Y17	Z17	X18	Y18	Z18	X19	Y19	Z19	X20	Y20	Z20	X21	Y21	Z21	X22	Y22	Z22	X23	Y23	Z23	X24	Y24	Z24	X25	Y25	Z25
1314	3.65	0.20963	0.196729	0.0679892	0.141818	0.2008	0.0702622	0.23777	0.185796	0.185888	0.148035	0.192023	0.194668				0.24757	0.189802	0.144399																															0.229679	0.193961	0.11731																								
1315	3.65278	0.210466	0.19692	0.0680321	0.142305	0.202037	0.0701824	0.237913	0.189938	0.185069	0.148201	0.194137	0.194746	0.231786	0.195959	0.114425	0.247272	0.192226	0.144157																																																									
1316	3.65556																																																																											
1317	3.65833	0.210906	0.201437	0.068262	0.143273	0.206519	0.0706387	0.23889	0.192215	0.18596	0.149239	0.198605	0.195393	0.231334	0.199428	0.114318	0.248845	0.19636	0.144679																																																									
1318	3.66111																																																																											
1319	3.66389																																																																											
1320	3.66667	0.21127	0.209133	0.0688416	0.143581	0.214556	0.0714047	0.24005	0.200905	0.185462	0.150099	0.205482	0.195929	0.232813	0.206027	0.114546	0.249949	0.20276	0.145017																																																									
1321	3.66944	0.211867	0.211365	0.0690382	0.144016	0.21573	0.0713589	0.240493	0.202889	0.185587	0.150389	0.207525	0.196077	0.233162	0.208416	0.11483	0.248962	0.204902	0.144735																																																									
1322	3.67222																																																																											
1323	3.675	0.212461	0.215798	0.0694916	0.144459	0.220444	0.0718133	0.240985	0.207467	0.186065	0.151291	0.212525	0.196397	0.233574	0.212932	0.115019	0.24948	0.209405	0.144955																																																									
1324	3.67778	0.212991	0.217352	0.0695293	0.145447	0.222791	0.0720907	0.241199	0.21031	0.1861	0.151613	0.214417	0.196588	0.234239	0.215533	0.115011	0.250822	0.211889	0.145322																																																									
1325	3.68056																																																																											
1326	3.68333	0.213226	0.222786	0.0702294	0.145899	0.227743	0.0725961	0.241586	0.21228	0.187592	0.152457	0.219782	0.197354	0.234646	0.220239	0.115328	0.250836	0.216949	0.145597																																																									
1327	3.68611	0.214035	0.224975	0.0699297	0.146246	0.229944	0.0729128	0.242557	0.217078	0.187145	0.152579	0.222124	0.197577	0.235293	0.222902	0.115745	0.250971	0.219108	0.146027																																																									
1328	3.68889																																																																											
1329	3.69167	0.214881	0.230106	0.070455	0.146719	0.23527	0.073239	0.243263	0.220308	0.188186	0.15351	0.227213	0.198102	0.234677	0.227891	0.116332	0.252765	0.224474	0.146634																																																									
1330	3.69444	0.21445	0.23451	0.070935	0.146601	0.23849	0.0738169	0.243305	0.224751	0.187516	0.153863	0.229761	0.198291	0.237403	0.229187	0.116485	0.25187	0.226658	0.146643																																																									
1331	3.69722																																																																											
1332	3.7	0.214957	0.238857	0.0718218	0.147927	0.243461	0.0743487	0.244338	0.229737	0.188061	0.154484	0.234797	0.198758	0.236289	0.235439	0.117265	0.254074	0.232063	0.14737																																																									
1333	3.70278																																																																											
1334	3.70556																																																																											
1335	3.70833	0.216044	0.247979	0.0723544	0.148756	0.251365	0.0752393	0.245294	0.235758	0.189871	0.155601	0.242917	0.199855	0.238118	0.243814	0.117924	0.254682	0.23985	0.148325																																																									
